<svg width="533" height="153" viewBox="0 0 533 153" fill="none" xmlns="http://www.w3.org/2000/svg">
<path fill-rule="evenodd" clip-rule="evenodd" d="M397.537 8.50011L448.5 148L430.5 148L388.365 30.1181L397.537 8.50011Z" fill="#16DB65"/>
<path d="M234.724 1V147H217.43V1H234.724ZM313.487 1L259.276 69.0865L228.81 104.484L225.942 83.8269L248.882 55.5495L292.699 1H313.487ZM296.821 147L248.523 75.8049L258.828 60.4629L317.43 147H296.821Z" fill="white"/>
<path d="M200.43 131.149V147H131.442V131.149H200.43ZM134.932 0V147H117.663V0H134.932ZM191.303 63.2019V79.0529H131.442V63.2019H191.303ZM199.535 0V15.9519H131.442V0H199.535Z" fill="white"/>
<path d="M58.7871 0V147H41.7862V0H58.7871ZM100.663 0V15.9519H0V0H100.663Z" fill="white"/>
<path d="M458.537 1.00011C478.031 1.00011 496.726 8.74383 510.51 22.5278C524.293 36.3117 532.037 55.0067 532.037 74.5001C532.037 93.9935 524.294 112.689 510.51 126.472C496.726 140.256 478.031 148 458.537 148L458.537 133.3C474.132 133.3 489.088 127.105 500.115 116.078C511.142 105.051 517.337 90.0948 517.337 74.5001C517.337 58.9054 511.142 43.9494 500.115 32.9222C489.088 21.8951 474.132 15.7001 458.537 15.7001V1.00011Z" fill="white"/>
<path d="M448.862 133.3H459.887V148H454.037L448.862 133.3Z" fill="white"/>
<path d="M402 1H459V15.7H407.816L402 1Z" fill="white"/>
<path d="M336 147H316.5L373.117 1H392.56L336 147Z" fill="white"/>
</svg>
