<svg width="667" height="158" viewBox="0 0 667 158" fill="none" xmlns="http://www.w3.org/2000/svg">
<g clip-path="url(#clip0_9_17)">
<path fill-rule="evenodd" clip-rule="evenodd" d="M464.537 13.5001L515.5 153L497.5 153L455.365 35.1181L464.537 13.5001Z" fill="#16DB65"/>
<path d="M301.724 6V152H284.43V6H301.724ZM380.487 6L326.276 74.0865L295.81 109.484L292.943 88.8269L315.882 60.5494L359.699 6H380.487ZM363.821 152L315.523 80.8049L325.828 65.4629L384.43 152H363.821Z" fill="#212529"/>
<path d="M267.43 136.149V152H198.442V136.149H267.43ZM201.932 5V152H184.663V5H201.932ZM258.303 68.2019V84.0529H198.442V68.2019H258.303ZM266.535 5V20.9519H198.442V5H266.535Z" fill="#212529"/>
<path d="M125.787 5V152H108.786V5H125.787ZM167.663 5V20.9519H67V5H167.663Z" fill="#212529"/>
<path d="M525.537 6.00011C545.031 6.00011 563.726 13.7438 577.51 27.5278C591.293 41.3117 599.037 60.0067 599.037 79.5001C599.037 98.9935 591.294 117.689 577.51 131.472C563.726 145.256 545.031 153 525.537 153L525.537 138.3C541.132 138.3 556.088 132.105 567.115 121.078C578.142 110.051 584.337 95.0948 584.337 79.5001C584.337 63.9054 578.142 48.9494 567.115 37.9222C556.088 26.8951 541.132 20.7001 525.537 20.7001V6.00011Z" fill="#212529"/>
<path d="M515.862 138.3H526.887V153H521.037L515.862 138.3Z" fill="#212529"/>
<path d="M469 6H526V20.7H474.816L469 6Z" fill="#212529"/>
<path d="M403 152H383.5L440.117 6H459.56L403 152Z" fill="#212529"/>
</g>
<defs>
<clipPath id="clip0_9_17">
<rect width="667" height="158" fill="white"/>
</clipPath>
</defs>
</svg>
